<svg width="25" height="25" viewBox="0 0 25 25" fill="none" xmlns="http://www.w3.org/2000/svg">
<path d="M22.8381 24.9606C23.8325 24.9606 24.6399 24.1373 24.6399 23.1234L24.6399 12.7409C24.6399 11.727 23.8325 10.9037 22.8381 10.9037C21.8438 10.9037 21.0364 11.727 21.0364 12.7409L21.0364 18.6946L3.74627 1.06466C3.04225 0.346813 1.9047 0.346813 1.20068 1.06466C0.496669 1.78252 0.496669 2.94243 1.20068 3.66028L18.4908 21.2902L12.6518 21.2902C11.6575 21.2902 10.85 22.1135 10.85 23.1274C10.85 24.1414 11.6575 24.9647 12.6518 24.9647L22.8342 24.9646L22.8381 24.9606Z" fill="#F08143"/>
</svg>
