<svg width="270" height="48" viewBox="0 0 270 48" fill="none" xmlns="http://www.w3.org/2000/svg">
<path d="M23 21C19.6852 21 17 23.6862 17 27C17 30.3146 19.6862 33 23 33C26.3146 33 29 30.3138 29 27C29 23.6854 26.3138 21 23 21ZM23 17C28.5208 17 33 21.4742 33 27C33 32.521 28.5258 37 23 37C17.479 37 13 32.5258 13 27C13 21.4791 17.4742 17 23 17ZM36 16.4983C36 17.8785 34.8784 18.9983 33.5 18.9983C32.1198 18.9983 31 17.8768 31 16.4983C31 15.1198 32.1214 14 33.5 14C34.8766 13.9983 36 15.1198 36 16.4983ZM23 11C18.051 11 17.2444 11.0131 14.9426 11.1156C13.3743 11.1892 12.3231 11.4001 11.3464 11.7793C10.4784 12.116 9.85221 12.518 9.18507 13.1851C8.51538 13.8548 8.11412 14.4793 7.77884 15.3477C7.39876 16.3266 7.1879 17.3762 7.1156 18.9423C7.0121 21.1504 7 21.9221 7 27C7 31.949 7.0131 32.7556 7.11558 35.0572C7.18924 36.6248 7.40044 37.6776 7.77872 38.652C8.11624 39.5212 8.51903 40.1488 9.18295 40.8128C9.85529 41.4842 10.4816 41.8868 11.3418 42.2188C12.3304 42.601 13.381 42.8122 14.9423 42.8844C17.1504 42.9878 17.9221 43 23 43C27.949 43 28.7556 42.9868 31.0572 42.8844C32.6214 42.811 33.675 42.5992 34.652 42.2212C35.5188 41.8846 36.1484 41.4804 36.8128 40.817C37.4852 40.1436 37.887 39.5188 38.2194 38.6566C38.6006 37.6716 38.8122 36.6196 38.8844 35.0578C38.9878 32.8496 39 32.0778 39 27C39 22.051 38.9868 21.2444 38.8844 18.9427C38.8108 17.3781 38.599 16.323 38.2206 15.3464C37.8848 14.4808 37.4814 13.8527 36.8148 13.1851C36.144 12.5143 35.5212 12.1139 34.6522 11.7788C33.674 11.3991 32.6228 11.1879 31.0576 11.1156C28.8496 11.0121 28.0778 11 23 11ZM23 7C28.4332 7 29.1116 7.02 31.245 7.12C33.3732 7.21834 34.825 7.555 36.1 8.05C37.4182 8.55834 38.5316 9.245 39.6432 10.3567C40.7532 11.4683 41.44 12.585 41.95 13.9C42.4432 15.1733 42.78 16.6267 42.88 18.755C42.975 20.8883 43 21.5667 43 27C43 32.4334 42.98 33.1116 42.88 35.245C42.7816 37.3734 42.4432 38.825 41.95 40.1C41.4416 41.4184 40.7532 42.5316 39.6432 43.6434C38.5316 44.7534 37.4132 45.44 36.1 45.95C34.825 46.4434 33.3732 46.78 31.245 46.88C29.1116 46.975 28.4332 47 23 47C17.5666 47 16.8883 46.98 14.755 46.88C12.6267 46.7816 11.1767 46.4434 9.89999 45.95C8.58332 45.4416 7.46832 44.7534 6.35666 43.6434C5.245 42.5316 4.56 41.4134 4.05 40.1C3.555 38.825 3.22 37.3734 3.12 35.245C3.025 33.1116 3 32.4334 3 27C3 21.5667 3.02 20.8883 3.12 18.755C3.21832 16.625 3.555 15.175 4.05 13.9C4.55832 12.5833 5.245 11.4683 6.35666 10.3567C7.46832 9.245 8.585 8.56 9.89999 8.05C11.175 7.555 12.625 7.22 14.755 7.12C16.8883 7.025 17.5666 7 23 7Z" fill="#EBEBEB"/>
<path d="M140.561 44V28.5209H145.744L146.52 22.5033H140.561V18.6614C140.561 16.9192 141.044 15.7319 143.543 15.7319L146.73 15.7304V10.3484C146.178 10.2752 144.287 10.1112 142.086 10.1112C137.492 10.1112 134.347 12.9155 134.347 18.0656V22.5033H129.15V28.5209H134.347V44H115.222C113.995 44 113 43.0051 113 41.7778V6.22222C113 4.99493 113.995 4 115.222 4H150.778C152.005 4 153 4.99493 153 6.22222V41.7778C153 43.0051 152.005 44 150.778 44H140.561Z" fill="#EBEBEB"/>
<path d="M250.001 10C251.096 10.0051 253.835 10.0278 256.746 10.1273L257.778 10.1657C260.709 10.2841 263.637 10.4865 265.089 10.8322C267.026 11.2967 268.549 12.6523 269.064 14.3706C269.883 17.0991 269.985 22.4246 269.998 23.7134L270 23.9805V23.9992C270 23.9992 270 24.0057 270 24.0181L269.998 24.2852C269.985 25.574 269.883 30.8995 269.064 33.6281C268.542 35.3526 267.019 36.7083 265.089 37.1664C263.637 37.5121 260.709 37.7144 257.778 37.8329L256.746 37.8712C253.835 37.9708 251.096 37.9934 250.001 37.9986L249.52 38H249.499C249.499 38 249.492 38 249.478 38L248.998 37.9986C246.68 37.9878 236.991 37.8983 233.909 37.1664C231.972 36.7018 230.449 35.3463 229.935 33.6281C229.115 30.8995 229.013 25.574 229 24.2852V23.7134C229.013 22.4246 229.115 17.0991 229.935 14.3706C230.456 12.6459 231.979 11.2904 233.909 10.8322C236.991 10.1002 246.68 10.0109 248.998 10H250.001ZM245.399 17.8739V30.1246L257.699 23.9992L245.399 17.8739Z" fill="#EBEBEB"/>
</svg>
