<svg width="495" height="227" viewBox="0 0 495 227" fill="none" xmlns="http://www.w3.org/2000/svg">
<g opacity="0.8">
<path d="M474.831 227V189.381" stroke="#5463FF" stroke-miterlimit="10"/>
<path d="M456.402 208.172H493.297" stroke="#5463FF" stroke-miterlimit="10"/>
<path d="M399.148 227V189.381" stroke="#5463FF" stroke-miterlimit="10"/>
<path d="M380.681 208.172H417.576" stroke="#5463FF" stroke-miterlimit="10"/>
<path d="M323.425 227V189.381" stroke="#5463FF" stroke-miterlimit="10"/>
<path d="M304.993 208.172H341.889" stroke="#5463FF" stroke-miterlimit="10"/>
<path d="M247.742 227V189.381" stroke="#5463FF" stroke-miterlimit="10"/>
<path d="M229.274 208.172H266.17" stroke="#5463FF" stroke-miterlimit="10"/>
<path d="M172.021 227V189.381" stroke="#5463FF" stroke-miterlimit="10"/>
<path d="M153.554 208.172H190.449" stroke="#5463FF" stroke-miterlimit="10"/>
<path d="M96.2959 227V189.381" stroke="#5463FF" stroke-miterlimit="10"/>
<path d="M77.8667 208.172H114.761" stroke="#5463FF" stroke-miterlimit="10"/>
<path d="M20.6128 227V189.381" stroke="#5463FF" stroke-miterlimit="10"/>
<path d="M2.14648 208.172H39.0414" stroke="#5463FF" stroke-miterlimit="10"/>
<path d="M474.831 132.329V94.6721" stroke="#FF413D" stroke-miterlimit="10"/>
<path d="M456.402 113.5H493.297" stroke="#FF413D" stroke-miterlimit="10"/>
<path d="M399.148 132.329V94.6721" stroke="#FF413D" stroke-miterlimit="10"/>
<path d="M380.681 113.5H417.576" stroke="#FF413D" stroke-miterlimit="10"/>
<path d="M323.425 132.329V94.6721" stroke="#FF413D" stroke-miterlimit="10"/>
<path d="M304.993 113.5H341.889" stroke="#FF413D" stroke-miterlimit="10"/>
<path d="M247.742 132.329V94.6721" stroke="#FF413D" stroke-miterlimit="10"/>
<path d="M229.274 113.5H266.17" stroke="#FF413D" stroke-miterlimit="10"/>
<path d="M172.021 132.329V94.6721" stroke="#FF413D" stroke-miterlimit="10"/>
<path d="M153.554 113.5H190.449" stroke="#FF413D" stroke-miterlimit="10"/>
<path d="M96.2959 132.329V94.6721" stroke="#FF413D" stroke-miterlimit="10"/>
<path d="M77.8667 113.5H114.761" stroke="#FF413D" stroke-miterlimit="10"/>
<path d="M20.6128 132.329V94.6719" stroke="#FF413D" stroke-miterlimit="10"/>
<path d="M2.14648 113.5H39.0414" stroke="#FF413D" stroke-miterlimit="10"/>
<path d="M474.831 37.619V0" stroke="#1A73E9" stroke-miterlimit="10"/>
<path d="M456.402 18.8284H493.297" stroke="#1A73E9" stroke-miterlimit="10"/>
<path d="M399.148 37.619V0" stroke="#1A73E9" stroke-miterlimit="10"/>
<path d="M380.681 18.8284H417.576" stroke="#1A73E9" stroke-miterlimit="10"/>
<path d="M323.425 37.619V0" stroke="#1A73E9" stroke-miterlimit="10"/>
<path d="M304.993 18.8284H341.889" stroke="#1A73E9" stroke-miterlimit="10"/>
<path d="M247.742 37.619V0" stroke="#1A73E9" stroke-miterlimit="10"/>
<path d="M229.274 18.8284H266.17" stroke="#1A73E9" stroke-miterlimit="10"/>
<path d="M172.021 37.619V0" stroke="#1A73E9" stroke-miterlimit="10"/>
<path d="M153.554 18.8284H190.449" stroke="#1A73E9" stroke-miterlimit="10"/>
<path d="M96.2959 37.619V0" stroke="#1A73E9" stroke-miterlimit="10"/>
<path d="M77.8667 18.8284H114.761" stroke="#1A73E9" stroke-miterlimit="10"/>
<path d="M20.6128 37.619V0" stroke="#1A73E9" stroke-miterlimit="10"/>
<path d="M2.14648 18.8284H39.0414" stroke="#1A73E9" stroke-miterlimit="10"/>
</g>
</svg>
