<svg width="87" height="62" viewBox="0 0 87 62" fill="none" xmlns="http://www.w3.org/2000/svg">
<path d="M43.5 61.625C40.9625 61.625 38.8177 60.749 37.0656 58.9969C35.3135 57.2448 34.4375 55.1 34.4375 52.5625C34.4375 50.025 35.3135 47.8802 37.0656 46.1281C38.8177 44.376 40.9625 43.5 43.5 43.5C46.0375 43.5 48.1823 44.376 49.9344 46.1281C51.6865 47.8802 52.5625 50.025 52.5625 52.5625C52.5625 55.1 51.6865 57.2448 49.9344 58.9969C48.1823 60.749 46.0375 61.625 43.5 61.625ZM23.0188 41.1438L15.4063 33.35C18.9708 29.7854 23.1547 26.9609 27.9578 24.8766C32.7609 22.7922 37.9417 21.75 43.5 21.75C49.0583 21.75 54.2391 22.8073 59.0422 24.9219C63.8453 27.0365 68.0292 29.9063 71.5938 33.5312L63.9813 41.1438C61.3229 38.4854 58.2417 36.401 54.7375 34.8906C51.2333 33.3802 47.4875 32.625 43.5 32.625C39.5125 32.625 35.7667 33.3802 32.2625 34.8906C28.7583 36.401 25.6771 38.4854 23.0188 41.1438ZM7.6125 25.7375L0 18.125C5.55833 12.4458 12.0531 8.00521 19.4844 4.80313C26.9156 1.60104 34.9208 0 43.5 0C52.0792 0 60.0844 1.60104 67.5156 4.80313C74.9469 8.00521 81.4417 12.4458 87 18.125L79.3875 25.7375C74.7354 21.0854 69.3432 17.4453 63.2109 14.8172C57.0786 12.1891 50.5083 10.875 43.5 10.875C36.4917 10.875 29.9214 12.1891 23.7891 14.8172C17.6568 17.4453 12.2646 21.0854 7.6125 25.7375Z" fill="#00A0E3"/>
</svg>
