<svg width="113" height="90" viewBox="0 0 113 90" fill="none" xmlns="http://www.w3.org/2000/svg">
<path d="M67.5 73.125H95.625V45H84.375V61.875H67.5V73.125ZM16.875 45H28.125V28.125H45V16.875H16.875V45ZM11.25 90C8.15625 90 5.50781 88.8984 3.30469 86.6953C1.10156 84.4922 0 81.8438 0 78.75V11.25C0 8.15625 1.10156 5.50781 3.30469 3.30469C5.50781 1.10156 8.15625 0 11.25 0H101.25C104.344 0 106.992 1.10156 109.195 3.30469C111.398 5.50781 112.5 8.15625 112.5 11.25V78.75C112.5 81.8438 111.398 84.4922 109.195 86.6953C106.992 88.8984 104.344 90 101.25 90H11.25ZM11.25 78.75H101.25V11.25H11.25V78.75Z" fill="#00A0E3"/>
</svg>
