<svg width="91" height="88" viewBox="0 0 91 88" fill="none" xmlns="http://www.w3.org/2000/svg">
<path d="M14.96 82.39C14.08 83.1967 13.0167 83.5817 11.77 83.545C10.5233 83.5083 9.49667 83.05 8.69 82.17C6.12333 79.3833 4.03333 76.3033 2.42 72.93C0.806667 69.5567 0 65.9633 0 62.15C0 58.4833 0.513333 54.9267 1.54 51.48C2.56667 48.0333 3.81333 44.66 5.28 41.36C6.38 38.72 7.40667 36.0617 8.36 33.385C9.31333 30.7083 9.79 27.94 9.79 25.08C9.79 22.5133 9.13 20.13 7.81 17.93C6.49 15.73 4.87667 13.75 2.97 11.99C2.09 11.1833 1.65 10.175 1.65 8.965C1.65 7.755 2.05333 6.71 2.86 5.83C3.66667 4.95 4.675 4.49167 5.885 4.455C7.095 4.41833 8.14 4.80333 9.02 5.61C11.8067 8.17667 14.0983 11.11 15.895 14.41C17.6917 17.71 18.59 21.2667 18.59 25.08C18.59 28.5267 18.095 31.8817 17.105 35.145C16.115 38.4083 14.9233 41.6167 13.53 44.77C12.2833 47.5567 11.1833 50.3617 10.23 53.185C9.27667 56.0083 8.8 58.96 8.8 62.04C8.8 64.7533 9.38667 67.3017 10.56 69.685C11.7333 72.0683 13.2733 74.25 15.18 76.23C15.9867 77.11 16.3717 78.155 16.335 79.365C16.2983 80.575 15.84 81.5833 14.96 82.39ZM32.56 82.39C31.68 83.1967 30.6167 83.5817 29.37 83.545C28.1233 83.5083 27.0967 83.05 26.29 82.17C23.7233 79.3833 21.6333 76.3033 20.02 72.93C18.4067 69.5567 17.6 65.9633 17.6 62.15C17.6 58.4833 18.1133 54.9267 19.14 51.48C20.1667 48.0333 21.4133 44.66 22.88 41.36C23.98 38.72 25.0067 36.0617 25.96 33.385C26.9133 30.7083 27.39 27.94 27.39 25.08C27.39 22.5133 26.73 20.13 25.41 17.93C24.09 15.73 22.4767 13.75 20.57 11.99C19.69 11.1833 19.25 10.175 19.25 8.965C19.25 7.755 19.6533 6.71 20.46 5.83C21.2667 4.95 22.275 4.49167 23.485 4.455C24.695 4.41833 25.74 4.80333 26.62 5.61C29.4067 8.17667 31.6983 11.11 33.495 14.41C35.2917 17.71 36.19 21.2667 36.19 25.08C36.19 28.5267 35.695 31.8633 34.705 35.09C33.715 38.3167 32.5233 41.5067 31.13 44.66C29.8833 47.4467 28.7833 50.27 27.83 53.13C26.8767 55.99 26.4 58.96 26.4 62.04C26.4 64.7533 26.9867 67.3017 28.16 69.685C29.3333 72.0683 30.8733 74.25 32.78 76.23C33.5867 77.11 33.9717 78.155 33.935 79.365C33.8983 80.575 33.44 81.5833 32.56 82.39ZM42.24 83.6V4.4C42.24 3.15333 42.6617 2.10833 43.505 1.265C44.3483 0.421667 45.3933 0 46.64 0C47.8867 0 48.9317 0.421667 49.775 1.265C50.6183 2.10833 51.04 3.15333 51.04 4.4V18.26L62.26 7.15C63.0667 6.34333 64.075 5.94 65.285 5.94C66.495 5.94 67.54 6.38 68.42 7.26C69.2267 8.06667 69.63 9.09333 69.63 10.34C69.63 11.5867 69.2267 12.6133 68.42 13.42L51.04 30.8V39.6H59.84L77.22 22.22C78.0267 21.4133 79.0533 21.01 80.3 21.01C81.5467 21.01 82.5733 21.4133 83.38 22.22C84.1867 23.0267 84.59 24.0533 84.59 25.3C84.59 26.5467 84.1867 27.5733 83.38 28.38L72.38 39.6H86.24C87.4867 39.6 88.5317 40.0217 89.375 40.865C90.2183 41.7083 90.64 42.7533 90.64 44C90.64 45.2467 90.2183 46.2917 89.375 47.135C88.5317 47.9783 87.4867 48.4 86.24 48.4H72.38L83.49 59.62C84.2967 60.4267 84.7 61.435 84.7 62.645C84.7 63.855 84.26 64.9 83.38 65.78C82.5733 66.5867 81.5467 66.99 80.3 66.99C79.0533 66.99 78.0267 66.5867 77.22 65.78L59.84 48.4H51.04V57.2L68.42 74.58C69.2267 75.3867 69.63 76.4133 69.63 77.66C69.63 78.9067 69.2267 79.9333 68.42 80.74C67.6133 81.5467 66.5867 81.95 65.34 81.95C64.0933 81.95 63.0667 81.5467 62.26 80.74L51.04 69.74V83.6C51.04 84.8467 50.6183 85.8917 49.775 86.735C48.9317 87.5783 47.8867 88 46.64 88C45.3933 88 44.3483 87.5783 43.505 86.735C42.6617 85.8917 42.24 84.8467 42.24 83.6Z" fill="#00A0E3"/>
</svg>
